<svg width="194" height="228" xmlns="http://www.w3.org/2000/svg" xmlns:xlink="http://www.w3.org/1999/xlink" xml:space="preserve" overflow="hidden"><defs><clipPath id="clip0"><rect x="0" y="0" width="194" height="228"/></clipPath><clipPath id="clip1"><rect x="0" y="0" width="194" height="227"/></clipPath></defs><g clip-path="url(#clip0)"><g clip-path="url(#clip1)"><path d="M86.4084 143.224 181.479 143.224" stroke="#231815" stroke-width="1.57297" stroke-linecap="round" stroke-linejoin="round" stroke-miterlimit="4" stroke-opacity="1" fill="none" fill-rule="nonzero" transform="matrix(1.00326 0 0 1 0 0.445447)"/><path d="M180.388 138.925 193.286 143.224 180.388 147.524 180.388 138.925Z" fill="#231815" fill-rule="evenodd" fill-opacity="1" transform="matrix(1.00326 0 0 1 0 0.445447)"/><path d="M718.302 925.346 717.966 926.416C717.878 926.028 717.672 925.678 717.379 925.409 717.106 925.21 716.773 925.107 716.435 925.116 715.67 925.139 714.933 925.411 714.338 925.892 713.392 926.59 712.618 927.492 712.073 928.534 711.511 929.491 711.2 930.573 711.171 931.68 711.135 932.242 711.316 932.798 711.674 933.232 711.959 933.589 712.391 933.796 712.849 933.798 713.363 933.788 713.864 933.637 714.296 933.358 715.172 932.746 715.94 931.986 716.561 931.114L716.372 931.806C716.246 932.2 716.175 932.609 716.162 933.022 716.15 933.234 716.217 933.444 716.351 933.61 716.523 933.746 716.739 933.813 716.959 933.798 717.423 933.775 717.865 933.597 718.218 933.295 718.746 932.878 719.199 932.374 719.56 931.806L719.245 931.596C718.973 932.014 718.641 932.387 718.26 932.708 718.174 932.792 718.063 932.842 717.945 932.855 717.884 932.88 717.817 932.88 717.756 932.855 717.723 932.775 717.723 932.683 717.756 932.603 717.748 932.534 717.748 932.463 717.756 932.393L717.966 931.533 719.791 925.242 718.302 925.472ZM717.295 925.955C717.534 926.288 717.645 926.699 717.61 927.108 717.58 928.65 717.016 930.132 716.016 931.303 715.198 932.309 714.464 932.813 713.792 932.813 713.503 932.806 713.233 932.668 713.058 932.435 712.838 932.148 712.727 931.791 712.744 931.429 712.784 930.443 713.033 929.478 713.478 928.597 713.876 927.706 714.455 926.907 715.177 926.248 715.525 925.919 715.978 925.72 716.456 925.682 716.775 925.669 717.083 925.802 717.295 926.039Z" fill="#231815" fill-rule="nonzero" fill-opacity="1" transform="matrix(1.00326 0 0 1 -528.134 -771.128)"/><path d="M86.4084 143.224 105.892 17.1559" stroke="#231815" stroke-width="1.57297" stroke-linecap="round" stroke-linejoin="round" stroke-miterlimit="4" stroke-opacity="1" fill="none" fill-rule="nonzero" transform="matrix(1.00326 0 0 1 0 0.445447)"/><path d="M101.467 17.5753 107.696 5.47393 109.961 18.8756 101.467 17.5753Z" fill="#231815" fill-rule="evenodd" fill-opacity="1" transform="matrix(1.00326 0 0 1 0 0.445447)"/><path d="M643.869 771.971C644.244 771.934 644.624 772.007 644.959 772.181 645.142 772.328 645.245 772.554 645.232 772.789 645.19 773.303 645.083 773.811 644.917 774.299L642.401 782.689C642.252 783.305 642.034 783.903 641.75 784.471 641.608 784.683 641.402 784.845 641.163 784.933 640.811 785.046 640.442 785.103 640.073 785.1L639.926 785.478 645.064 785.478C645.949 785.503 646.834 785.44 647.707 785.289 648.445 785.163 649.156 784.91 649.804 784.534 650.381 784.159 650.857 783.647 651.188 783.045 651.534 782.445 651.715 781.766 651.713 781.074 651.717 780.451 651.511 779.845 651.125 779.354 650.635 778.767 649.987 778.33 649.259 778.095 650.326 777.911 651.314 777.405 652.09 776.648 652.635 776.084 652.95 775.335 652.971 774.551 652.965 774.02 652.789 773.507 652.468 773.083 652.107 772.573 651.591 772.192 651 771.992 650.284 771.711 649.523 771.577 648.755 771.594L643.764 771.594 643.617 771.971ZM647.203 772.391C647.52 772.317 647.843 772.276 648.168 772.265 648.917 772.183 649.668 772.393 650.266 772.852 650.71 773.284 650.941 773.89 650.895 774.509 650.918 775.4 650.54 776.254 649.867 776.837 648.948 777.536 647.807 777.871 646.658 777.781L645.693 777.781 647.266 772.412ZM645.379 778.515 646.197 778.515C647.082 778.431 647.967 778.687 648.672 779.228 649.2 779.744 649.483 780.461 649.448 781.2 649.49 782.227 649.018 783.211 648.189 783.821 647.38 784.467 646.371 784.807 645.337 784.786 644.754 784.773 644.173 784.731 643.596 784.66L645.379 778.536Z" fill="#231815" fill-rule="nonzero" fill-opacity="1" transform="matrix(1.00326 0 0 1 -528.134 -771.128)"/><path d="M559.285 983.735C558.836 984.261 558.295 984.702 557.691 985.035 557.253 985.272 556.762 985.396 556.265 985.392 555.715 985.413 555.183 985.216 554.776 984.847 554.4 984.435 554.205 983.892 554.231 983.336 554.241 982.321 554.507 981.325 555.007 980.442 555.374 979.727 555.896 979.102 556.537 978.618 557.06 978.211 557.699 977.982 558.362 977.967 558.635 977.951 558.903 978.018 559.138 978.156 559.247 978.234 559.31 978.36 559.306 978.492 559.325 978.553 559.325 978.62 559.306 978.681 559.233 978.798 559.14 978.905 559.033 978.995 558.916 979.096 558.817 979.217 558.74 979.352 558.719 979.454 558.719 979.563 558.74 979.666 558.727 980.025 559.01 980.325 559.369 980.337 559.381 980.337 559.396 980.337 559.411 980.337 559.669 980.337 559.912 980.212 560.061 980.002 560.306 979.733 560.434 979.379 560.417 979.016 560.422 978.607 560.235 978.221 559.914 977.967 559.467 977.657 558.926 977.51 558.383 977.548 557.431 977.577 556.508 977.877 555.72 978.408 554.856 978.991 554.136 979.767 553.622 980.673 553.113 981.522 552.838 982.493 552.825 983.483 552.725 984.905 553.796 986.139 555.218 986.237 555.363 986.248 555.51 986.245 555.657 986.231 556.391 986.235 557.114 986.048 557.754 985.685 558.513 985.251 559.182 984.675 559.725 983.987L559.453 983.735Z" fill="#231815" fill-rule="nonzero" fill-opacity="1" transform="matrix(1.00326 0 0 1 -528.134 -771.128)"/><path d="M528.35 794.685 528.35 795.084C528.566 795.06 528.784 795.06 529 795.084 529.245 795.069 529.489 795.136 529.692 795.272 529.803 795.373 529.858 795.522 529.839 795.671 529.766 796.155 529.652 796.631 529.503 797.097L526.42 807.583C527.318 808.282 528.409 808.685 529.545 808.737 530.542 808.705 531.508 808.393 532.335 807.835 533.295 807.187 534.092 806.325 534.663 805.318 535.248 804.341 535.567 803.227 535.586 802.089 535.628 801.354 535.372 800.635 534.872 800.096 534.401 799.609 533.746 799.343 533.069 799.362 532.542 799.362 532.024 799.492 531.559 799.74 530.925 800.111 530.353 800.578 529.86 801.124L531.957 794.14 528.455 794.706ZM529.252 803.074C529.459 802.263 529.904 801.533 530.531 800.977 531.043 800.526 531.695 800.268 532.377 800.243 532.8 800.245 533.201 800.436 533.467 800.767 533.797 801.174 533.96 801.692 533.929 802.214 533.924 803.29 533.681 804.349 533.216 805.318 532.87 806.187 532.297 806.948 531.559 807.521 531.026 807.923 530.38 808.15 529.713 808.171 529.084 808.133 528.474 807.946 527.93 807.625L529.252 803.074Z" fill="#231815" fill-rule="nonzero" fill-opacity="1" transform="matrix(1.00326 0 0 1 -528.134 -771.128)"/><path d="M86.4084 143.287 17.9109 25.1046" stroke="#231815" stroke-width="1.57297" stroke-linecap="round" stroke-linejoin="round" stroke-miterlimit="4" stroke-opacity="1" fill="none" fill-rule="nonzero" transform="matrix(1.00326 0 0 1 0 0.445447)"/><path d="M14.723 28.1876 11.9755 14.8698 22.1684 23.8672 14.723 28.1876Z" fill="#231815" fill-rule="evenodd" fill-opacity="1" transform="matrix(1.00326 0 0 1 0 0.445447)"/><path d="M86.4084 143.287 44.6094 215.853" stroke="#231815" stroke-width="1.57297" stroke-linecap="round" stroke-linejoin="round" stroke-miterlimit="4" stroke-opacity="1" fill="none" fill-rule="nonzero" transform="matrix(1.00326 0 0 1 0 0.445447)"/><path d="M48.8669 217.07 38.716 226.109 41.4215 212.791 48.8669 217.07Z" fill="#231815" fill-rule="evenodd" fill-opacity="1" transform="matrix(1.00326 0 0 1 0 0.445447)"/><path d="M86.4084 143.287 110.129 143.245" stroke="#231815" stroke-width="1.57297" stroke-linecap="round" stroke-linejoin="round" stroke-miterlimit="4" stroke-opacity="1" fill="none" fill-rule="nonzero" transform="matrix(1.00326 0 0 1 0 0.445447)"/><path d="M109.059 138.946 121.958 143.224 109.059 147.545 109.059 138.946Z" fill="#231815" fill-rule="evenodd" fill-opacity="1" transform="matrix(1.00326 0 0 1 0 0.445447)"/><path d="M86.4084 143.287 113.631 96.4335" stroke="#231815" stroke-width="1.57297" stroke-linecap="round" stroke-linejoin="round" stroke-miterlimit="4" stroke-opacity="1" fill="none" fill-rule="nonzero" transform="matrix(1.00326 0 0 1 0 0.445447)"/><path d="M109.374 95.1961 119.588 86.1987 116.819 99.5165 109.374 95.1961Z" fill="#231815" fill-rule="evenodd" fill-opacity="1" transform="matrix(1.00326 0 0 1 0 0.445447)"/><path d="M86.5762 143.287 45.5322 72.7131" stroke="#231815" stroke-width="1.57297" stroke-linecap="round" stroke-linejoin="round" stroke-miterlimit="4" stroke-opacity="1" fill="none" fill-rule="nonzero" transform="matrix(1.00326 0 0 1 0 0.445447)"/><path d="M42.3653 75.8171 39.5969 62.5203 49.7897 71.4967 42.3653 75.8171Z" fill="#231815" fill-rule="evenodd" fill-opacity="1" transform="matrix(1.00326 0 0 1 0 0.445447)"/><path d="M668.072 865.72C667.816 866.041 667.503 866.312 667.149 866.517 666.893 866.664 666.606 866.744 666.31 866.748 665.989 866.767 665.674 866.643 665.45 866.412 665.232 866.157 665.119 865.825 665.135 865.49 665.14 864.873 665.299 864.267 665.597 863.728 665.79 863.287 666.094 862.906 666.478 862.616 666.771 862.367 667.14 862.226 667.526 862.218 667.688 862.209 667.847 862.247 667.988 862.323 668.051 862.375 668.088 862.451 668.092 862.533 668.101 862.574 668.101 862.616 668.092 862.658L667.946 862.826C667.879 862.895 667.822 862.973 667.778 863.057 667.767 863.12 667.767 863.183 667.778 863.246 667.778 863.353 667.816 863.457 667.883 863.539 667.96 863.617 668.067 863.657 668.176 863.644 668.325 863.642 668.464 863.573 668.554 863.455 668.684 863.279 668.751 863.065 668.743 862.847 668.753 862.602 668.644 862.367 668.449 862.218 668.195 862.029 667.883 861.941 667.568 861.966 667.017 861.979 666.482 862.163 666.037 862.491 665.515 862.839 665.083 863.304 664.779 863.854 664.479 864.378 664.319 864.97 664.317 865.574 664.299 866.024 664.447 866.465 664.737 866.811 665.064 867.119 665.504 867.279 665.953 867.251 666.381 867.256 666.803 867.138 667.17 866.916 667.606 866.645 667.99 866.297 668.302 865.888L668.155 865.72Z" fill="#231815" fill-rule="nonzero" fill-opacity="1" transform="matrix(1.00326 0 0 1 -528.134 -771.128)"/><path d="M655.299 848.963C655.641 848.925 655.987 848.999 656.285 849.173 656.453 849.311 656.547 849.521 656.536 849.739 656.503 850.23 656.411 850.716 656.264 851.186L653.978 859.261C653.835 859.854 653.632 860.431 653.37 860.98 653.242 861.184 653.051 861.339 652.824 861.421 652.51 861.536 652.174 861.587 651.838 861.568L651.713 861.945 656.453 861.945C657.26 861.964 658.067 861.907 658.864 861.777 659.517 861.639 660.142 861.392 660.71 861.043 661.236 860.681 661.662 860.19 661.947 859.617 662.277 859.043 662.451 858.392 662.451 857.73 662.449 857.134 662.258 856.553 661.906 856.073 661.463 855.523 660.874 855.108 660.207 854.877 661.163 854.722 662.05 854.275 662.744 853.598 663.262 853.023 663.546 852.275 663.541 851.501 663.539 850.993 663.384 850.496 663.101 850.075 662.765 849.607 662.298 849.25 661.759 849.047 661.092 848.781 660.379 848.653 659.661 848.669L655.11 848.669 654.984 849.026ZM658.34 849.362C658.627 849.286 658.923 849.244 659.221 849.236 659.886 849.177 660.549 849.38 661.067 849.802 661.478 850.228 661.692 850.807 661.654 851.396 661.65 852.241 661.285 853.042 660.647 853.598 659.823 854.254 658.783 854.575 657.732 854.5L656.851 854.5 658.277 849.362ZM656.683 855.234 657.417 855.234C658.233 855.156 659.049 855.406 659.682 855.926 660.165 856.431 660.416 857.115 660.374 857.814 660.41 858.782 659.993 859.714 659.242 860.33 658.51 860.934 657.589 861.262 656.641 861.253 656.115 861.245 655.589 861.194 655.068 861.106L656.683 855.276Z" fill="#231815" fill-rule="nonzero" fill-opacity="1" transform="matrix(1.00326 0 0 1 -528.134 -771.128)"/><path d="M668.072 907.54 667.883 908.191C667.835 907.964 667.717 907.758 667.547 907.603 667.394 907.475 667.201 907.408 667.002 907.415 666.559 907.431 666.138 907.603 665.806 907.897 665.255 908.321 664.81 908.866 664.506 909.491 664.179 910.082 663.999 910.745 663.982 911.42 663.965 911.76 664.07 912.094 664.275 912.364 664.435 912.576 664.682 912.7 664.947 912.7 665.249 912.698 665.54 912.601 665.786 912.427 666.301 912.054 666.748 911.592 667.107 911.064L666.981 911.504C666.947 911.748 666.947 911.995 666.981 912.238 666.935 912.354 666.935 912.48 666.981 912.595 667.079 912.679 667.21 912.716 667.337 912.7 667.608 912.685 667.866 912.582 668.072 912.406 668.369 912.148 668.623 911.842 668.827 911.504L668.659 911.357C668.491 911.605 668.3 911.836 668.092 912.05 668.032 912.068 667.965 912.068 667.904 912.05 667.887 911.995 667.887 911.936 667.904 911.882 667.893 911.84 667.893 911.798 667.904 911.756L668.03 911.232 669.078 907.373 668.218 907.498ZM667.484 907.918C667.629 908.125 667.696 908.379 667.673 908.631 667.644 909.541 667.321 910.418 666.75 911.127 666.289 911.735 665.848 912.05 665.45 912.05 665.282 912.039 665.129 911.953 665.03 911.819 664.898 911.645 664.831 911.429 664.842 911.211 664.865 910.613 665.014 910.026 665.282 909.491 665.509 908.948 665.844 908.455 666.268 908.044 666.461 907.844 666.723 907.725 667.002 907.708 667.189 907.691 667.371 907.769 667.484 907.918Z" fill="#231815" fill-rule="nonzero" fill-opacity="1" transform="matrix(1.00326 0 0 1 -528.134 -771.128)"/><path d="M655.215 894.411C655.551 894.372 655.89 894.445 656.18 894.621 656.352 894.76 656.45 894.967 656.453 895.187 656.409 895.678 656.31 896.165 656.159 896.634L653.873 904.73C653.732 905.313 653.535 905.883 653.286 906.429 653.158 906.632 652.967 906.787 652.74 906.869 652.428 906.995 652.092 907.052 651.755 907.037L651.629 907.394 656.285 907.394C657.086 907.412 657.885 907.356 658.676 907.226 659.33 907.096 659.957 906.846 660.521 906.492 661.589 905.722 662.235 904.495 662.262 903.178 662.26 902.582 662.069 902.001 661.717 901.521 661.276 900.967 660.687 900.554 660.018 900.326 660.997 900.147 661.899 899.671 662.598 898.962 663.109 898.384 663.392 897.637 663.395 896.865 663.392 896.358 663.239 895.861 662.954 895.439 662.616 894.973 662.149 894.617 661.612 894.411 660.947 894.143 660.232 894.015 659.515 894.034L654.984 894.034 654.838 894.39ZM658.235 894.81C658.516 894.736 658.806 894.694 659.095 894.684 659.766 894.625 660.435 894.829 660.962 895.25 661.373 895.674 661.587 896.255 661.549 896.844 661.559 897.689 661.209 898.499 660.584 899.067 659.766 899.717 658.734 900.04 657.69 899.969L656.809 899.969 658.235 894.831ZM656.578 900.682 657.312 900.682C658.126 900.602 658.938 900.844 659.577 901.353 660.056 901.861 660.305 902.545 660.27 903.241 660.314 904.212 659.892 905.145 659.137 905.758 658.405 906.362 657.484 906.689 656.536 906.68 656.01 906.67 655.486 906.628 654.963 906.555L656.578 900.703Z" fill="#231815" fill-rule="nonzero" fill-opacity="1" transform="matrix(1.00326 0 0 1 -528.134 -771.128)"/><path d="M560.984 849.173 560.984 849.382 561.319 849.382C561.443 849.345 561.573 849.345 561.697 849.382 561.735 849.456 561.735 849.54 561.697 849.613 561.651 849.882 561.588 850.148 561.508 850.41L559.851 856.387C560.327 856.775 560.915 857.004 561.529 857.038 562.068 857.027 562.59 856.843 563.018 856.513 563.547 856.155 563.977 855.672 564.276 855.108 564.597 854.552 564.771 853.925 564.78 853.283 564.803 852.872 564.669 852.465 564.402 852.151 564.149 851.876 563.79 851.723 563.417 851.731 563.138 851.729 562.863 851.801 562.62 851.941 562.274 852.151 561.963 852.413 561.697 852.717L562.766 848.774 560.9 849.11ZM561.466 853.955C561.554 853.489 561.8 853.067 562.158 852.759 562.425 852.503 562.775 852.354 563.144 852.34 563.368 852.346 563.576 852.455 563.71 852.633 563.893 852.866 563.981 853.158 563.962 853.451 563.958 854.057 563.83 854.657 563.584 855.213 563.41 855.697 563.104 856.127 562.704 856.45 562.425 856.681 562.079 856.813 561.718 856.828 561.376 856.803 561.045 856.696 560.753 856.513L561.466 853.955Z" fill="#231815" fill-rule="nonzero" fill-opacity="1" transform="matrix(1.00326 0 0 1 -528.134 -771.128)"/><path d="M551.588 838.791C551.93 838.755 552.276 838.829 552.574 839.001 552.739 839.141 552.832 839.349 552.825 839.567 552.781 840.06 552.683 840.544 552.532 841.014L550.246 849.11C550.114 849.703 549.916 850.28 549.658 850.83 549.52 851.023 549.331 851.176 549.113 851.27 548.794 851.375 548.461 851.425 548.127 851.417L548.002 851.773 552.658 851.773C553.465 851.792 554.272 851.736 555.069 851.606 555.72 851.482 556.338 851.232 556.894 850.872 557.433 850.526 557.867 850.039 558.152 849.466 558.475 848.883 558.641 848.225 558.635 847.558 558.645 846.966 558.452 846.39 558.09 845.922 557.655 845.366 557.074 844.945 556.412 844.706 557.387 844.517 558.287 844.043 558.991 843.342 559.497 842.761 559.772 842.015 559.767 841.245 559.763 840.744 559.61 840.253 559.327 839.84 559.002 839.357 558.532 838.99 557.985 838.791 557.32 838.521 556.605 838.393 555.887 838.414L551.357 838.414 551.231 838.77ZM554.629 839.19C554.91 839.12 555.199 839.085 555.489 839.085 556.154 839.026 556.816 839.229 557.334 839.651 557.741 840.07 557.953 840.641 557.922 841.224 557.947 842.067 557.601 842.879 556.978 843.447 556.154 844.104 555.113 844.424 554.063 844.349L553.182 844.349 554.629 839.211ZM552.972 845.062 553.685 845.062C554.499 844.989 555.308 845.23 555.95 845.733 556.428 846.241 556.678 846.924 556.642 847.621 556.686 848.592 556.265 849.525 555.51 850.138 554.79 850.748 553.874 851.075 552.93 851.06 552.397 851.05 551.865 851.008 551.336 850.934L552.972 845.083Z" fill="#231815" fill-rule="nonzero" fill-opacity="1" transform="matrix(1.00326 0 0 1 -528.134 -771.128)"/><path d="M647.812 914.797 600.811 834.03M600.811 834.03 566.269 834.03" stroke="#231815" stroke-width="1.57297" stroke-linecap="round" stroke-linejoin="round" stroke-miterlimit="4" stroke-dasharray="11.0318 7.86485" stroke-opacity="1" fill="none" fill-rule="nonzero" transform="matrix(1.00326 0 0 1 -528.134 -771.128)"/><path d="M86.3036 143.455 76.1107 74.1603" stroke="#231815" stroke-width="1.57297" stroke-linecap="round" stroke-linejoin="round" stroke-miterlimit="4" stroke-opacity="1" fill="none" fill-rule="nonzero" transform="matrix(1.00326 0 0 1 0 0.445447)"/><path d="M72.021 75.8381 74.391 62.4783 80.536 74.6007 72.021 75.8381Z" fill="#231815" fill-rule="evenodd" fill-opacity="1" transform="matrix(1.00326 0 0 1 0 0.445447)"/><path d="M600.937 834.009 634.116 777.047M645.966 857.793 634.074 777.068" stroke="#231815" stroke-width="1.57297" stroke-linecap="round" stroke-linejoin="round" stroke-miterlimit="4" stroke-dasharray="11.0318 7.86485" stroke-opacity="1" fill="none" fill-rule="nonzero" transform="matrix(1.00326 0 0 1 -528.134 -771.128)"/><path d="M70.5949 144.818 99.3278 152.515 102.201 141.735 73.4891 134.038 70.5949 144.818Z" stroke="#231815" stroke-width="1.57297" stroke-linecap="square" stroke-linejoin="miter" stroke-miterlimit="2" stroke-opacity="1" fill="none" fill-rule="nonzero" transform="matrix(1.00326 0 0 1 0 0.445447)"/><path d="M603.391 912.574C602.825 912.144 602.324 911.636 601.902 911.064 601.64 910.596 601.594 910.036 601.776 909.533 601.936 909.015 602.288 908.579 602.762 908.316 603.353 907.977 604.062 907.899 604.712 908.107 605.031 908.203 605.335 908.344 605.614 908.526 605.757 908.658 605.918 908.763 606.096 908.841 606.157 908.862 606.224 908.862 606.285 908.841 606.453 908.78 606.615 908.702 606.768 908.61L606.432 910.707 605.929 910.707C605.893 910.149 605.719 909.61 605.425 909.134 605.18 908.832 604.84 908.618 604.461 908.526 604.062 908.379 603.618 908.434 603.265 908.673 603.001 908.906 602.81 909.212 602.72 909.554 602.6 909.82 602.6 910.126 602.72 910.393 603.112 910.888 603.571 911.326 604.083 911.693 604.651 912.089 605.117 912.614 605.446 913.224 605.685 913.706 605.732 914.262 605.572 914.776 605.419 915.374 605.044 915.892 604.524 916.223 603.924 916.584 603.194 916.661 602.531 916.433 602.217 916.364 601.927 916.213 601.692 915.992 601.522 915.862 601.329 915.762 601.126 915.699 601.05 915.68 600.971 915.68 600.895 915.699L600.329 915.825 600.581 913.245 601.168 913.245C601.107 913.912 601.262 914.581 601.608 915.154 601.889 915.512 602.279 915.77 602.72 915.888 603.118 916.024 603.555 915.978 603.915 915.762 604.282 915.456 604.534 915.034 604.628 914.566 604.685 914.243 604.61 913.91 604.419 913.643 604.133 913.186 603.764 912.788 603.328 912.469ZM623.231 919.747 623.085 919.747 624.511 914.357C624.532 914.296 624.532 914.229 624.511 914.168 624.511 914.168 624.511 914.168 624.301 914.042L623.798 913.916 623.924 913.392 626.021 913.958 625.874 914.482 625.371 914.357C625.299 914.315 625.211 914.315 625.14 914.357 625.14 914.357 625.14 914.357 625.014 914.503L622.917 921.97 622.413 921.823 620.757 913.937 620.882 913.937 619.247 920.103C619.2 920.172 619.2 920.265 619.247 920.334 619.276 920.403 619.341 920.451 619.414 920.46L619.939 920.586 619.792 921.11 617.695 920.544 617.82 920.019 618.345 920.145C618.45 920.145 618.534 920.145 618.575 920.145 618.636 920.097 618.68 920.032 618.701 919.956L620.484 913.287C620.484 913.287 620.484 913.14 620.484 913.098 620.484 913.056 620.484 913.098 620.274 912.993L619.855 912.867 620.002 912.343 621.596 912.784Z" fill="#231815" fill-rule="nonzero" fill-opacity="1" transform="matrix(1.00326 0 0 1 -528.134 -771.128)"/></g></g></svg>